<svg width="145" height="30" viewBox="0 0 145 30" version="1.1" xmlns="http://www.w3.org/2000/svg" xmlns:xlink="http://www.w3.org/1999/xlink" xmlns:figma="http://www.figma.com/figma/ns">
<title>Wordmark</title>
<desc>Created using Figma</desc>
<g id="Canvas" transform="translate(-928 547)" figma:type="canvas">
<rect x="928" y="-547" width="145" height="30" fill="#E5E5E5"/>
<mask id="mask0_alpha" mask-type="alpha">
<path d="M 828 -590L 2268 -590L 2268 286L 828 286L 828 -590Z" fill="#FFFFFF"/>
</mask>
<g id="Home" style="mix-blend-mode:normal;" mask="url(#mask0_alpha)" figma:type="frame">
<path d="M 828 -590L 2268 -590L 2268 286L 828 286L 828 -590Z" fill="#D02E25"/>
<g id="Rectangle 3" style="mix-blend-mode:normal;" figma:type="vector">
<use xlink:href="#path0_fill" transform="translate(828 -683)" fill="#FFFFFF" style="mix-blend-mode:normal;"/>
</g>
<g id="Navigation" style="mix-blend-mode:normal;" figma:type="symbol">
<g id="Navigation" style="mix-blend-mode:normal;" figma:type="frame">
<g id="Wordmark" style="mix-blend-mode:normal;" figma:type="frame">
<g id="Vector" style="mix-blend-mode:normal;" figma:type="vector">
<use xlink:href="#path1_fill" transform="translate(928 -546.992)" fill="#612D08" style="mix-blend-mode:normal;"/>
<use xlink:href="#path2_fill" transform="translate(928 -546.992)" fill="#612D08" style="mix-blend-mode:normal;"/>
</g>
<g id="Vector" style="mix-blend-mode:normal;" figma:type="vector">
<use xlink:href="#path3_fill" transform="translate(944.177 -546.992)" fill="#612D08" style="mix-blend-mode:normal;"/>
<use xlink:href="#path4_fill" transform="translate(944.177 -546.992)" fill="#612D08" style="mix-blend-mode:normal;"/>
</g>
<g id="Vector" style="mix-blend-mode:normal;" figma:type="vector">
<use xlink:href="#path5_fill" transform="translate(961.465 -546.743)" fill="#612D08" style="mix-blend-mode:normal;"/>
<use xlink:href="#path6_fill" transform="translate(961.465 -546.743)" fill="#612D08" style="mix-blend-mode:normal;"/>
</g>
<g id="Vector" style="mix-blend-mode:normal;" figma:type="vector">
<use xlink:href="#path7_fill" transform="translate(978.488 -546.743)" fill="#612D08" style="mix-blend-mode:normal;"/>
<use xlink:href="#path8_fill" transform="translate(978.488 -546.743)" fill="#612D08" style="mix-blend-mode:normal;"/>
</g>
<g id="Vector" style="mix-blend-mode:normal;" figma:type="vector">
<use xlink:href="#path9_fill" transform="translate(992.146 -547)" fill="#612D08" style="mix-blend-mode:normal;"/>
<use xlink:href="#path10_fill" transform="translate(992.146 -547)" fill="#612D08" style="mix-blend-mode:normal;"/>
</g>
<g id="Vector" style="mix-blend-mode:normal;" figma:type="vector">
<use xlink:href="#path11_fill" transform="translate(1008.47 -546.992)" fill="#612D08" style="mix-blend-mode:normal;"/>
<use xlink:href="#path12_fill" transform="translate(1008.47 -546.992)" fill="#612D08" style="mix-blend-mode:normal;"/>
</g>
<g id="Vector" style="mix-blend-mode:normal;" figma:type="vector">
<use xlink:href="#path13_fill" transform="translate(1024.65 -546.992)" fill="#612D08" style="mix-blend-mode:normal;"/>
<use xlink:href="#path14_fill" transform="translate(1024.65 -546.992)" fill="#612D08" style="mix-blend-mode:normal;"/>
</g>
<g id="Vector" style="mix-blend-mode:normal;" figma:type="vector">
<use xlink:href="#path15_fill" transform="translate(1041.94 -546.867)" fill="#612D08" style="mix-blend-mode:normal;"/>
<use xlink:href="#path16_fill" transform="translate(1041.94 -546.867)" fill="#612D08" style="mix-blend-mode:normal;"/>
</g>
<g id="Vector" style="mix-blend-mode:normal;" figma:type="vector">
<use xlink:href="#path17_fill" transform="translate(1058.04 -546.743)" fill="#612D08" style="mix-blend-mode:normal;"/>
<use xlink:href="#path18_fill" transform="translate(1058.04 -546.743)" fill="#612D08" style="mix-blend-mode:normal;"/>
</g>
</g>
</g>
</g>
</g>
</g>
<defs>
<path id="path0_fill" d="M 1440 0L 0 0L 0 548.712C 0 548.712 113.503 596.756 190 616.011C 390.229 666.412 527.081 625.625 720 625.625C 912.919 625.625 1045.53 663.943 1244 616.011C 1322.83 596.974 1440 548.712 1440 548.712L 1440 0Z"/>
<path id="path1_fill" d="M 7.46144 29.4054C 7.01914 29.4054 6.53813 29.3667 6.01842 29.2892C 5.50977 29.2229 4.99559 29.0736 4.47588 28.8414C 3.96723 28.6092 3.47516 28.283 2.99968 27.8628C 2.53526 27.4316 2.1206 26.8676 1.7557 26.171C 1.40185 25.4744 1.11435 24.6174 0.893199 23.6001C 0.683104 22.5717 0.578056 21.3499 0.578056 19.9345L 0.578056 9.89966C 0.578056 8.47322 0.688632 7.25688 0.909785 6.25063C 1.13094 5.23333 1.42397 4.38189 1.78887 3.69631C 2.15377 2.99968 2.57396 2.4468 3.04944 2.03767C 3.52492 1.62853 4.01699 1.31892 4.52564 1.10882C 5.03429 0.88767 5.53741 0.743921 6.03501 0.677575C 6.54366 0.611229 7.01361 0.578056 7.44486 0.578056C 8.57274 0.578056 9.51264 0.738391 10.2646 1.05906C 11.0275 1.36868 11.6357 1.79993 12.0891 2.35281C 12.5535 2.89463 12.8797 3.53045 13.0677 4.26025C 13.2667 4.99006 13.3662 5.76409 13.3662 6.58236C 13.3662 7.19053 13.3331 7.75447 13.2667 8.27418C 13.2114 8.78283 13.123 9.34677 13.0013 9.966L 9.51817 9.966L 9.51817 8.52298C 9.51817 6.96385 9.34677 5.79727 9.00399 5.02323C 8.6612 4.2492 8.15808 3.86218 7.49462 3.86218C 7.09654 3.86218 6.74823 3.93958 6.44967 4.09439C 6.15111 4.2492 5.90232 4.51458 5.70328 4.89054C 5.50424 5.25544 5.34943 5.74198 5.23886 6.35015C 5.13934 6.95832 5.08958 7.71577 5.08958 8.6225L 5.08958 21.56C 5.08958 22.4446 5.12828 23.1799 5.20568 23.766C 5.29414 24.352 5.43236 24.822 5.62035 25.1758C 5.80833 25.5296 6.05159 25.784 6.35015 25.9388C 6.65976 26.0825 7.0302 26.1544 7.46144 26.1544C 7.73788 26.1544 8.00327 26.0936 8.25759 25.972C 8.51192 25.8393 8.73307 25.6402 8.92105 25.3748C 9.12009 25.0984 9.2749 24.7556 9.38548 24.3465C 9.50711 23.9263 9.56793 23.4342 9.56793 22.8703L 9.56793 20.1003L 13.4989 20.1003L 13.4989 22.721C 13.4989 24.9989 12.9792 26.6796 11.9398 27.7633C 10.9004 28.8469 9.40759 29.3943 7.46144 29.4054Z"/>
<path id="path2_fill" fill-rule="evenodd" d="M 7.46309 29.9834L 7.46144 29.9834C 6.99713 29.9829 6.47502 29.9412 5.93741 29.8616C 5.38697 29.7874 4.79453 29.6154 4.24007 29.3692L 4.23794 29.3682L 4.23582 29.3673C 3.68663 29.1146 3.12323 28.7416 2.61689 28.296L 2.61156 28.2913L 2.60634 28.2864C 2.10382 27.8163 1.63031 27.1738 1.24364 26.4392L 1.24195 26.436L 1.24031 26.4328C 0.868716 25.6978 0.557065 24.771 0.328336 23.7229L 0.327567 23.7193L 0.326842 23.7158C 0.111001 22.6545 0.000531376 21.3746 0 19.9345L 0 9.89966C 0.00059356 8.44762 0.117277 7.16955 0.344923 6.12784C 0.34497 6.12762 0.345017 6.12741 0.345064 6.12719C 0.574232 5.07792 0.893541 4.1524 1.27783 3.42616C 1.66677 2.68848 2.15346 2.05024 2.67241 1.59949C 3.17981 1.165 3.74792 0.807711 4.29937 0.576884C 4.84222 0.342667 5.42089 0.177829 5.95861 0.10459L 5.95942 0.104481L 5.96024 0.104374C 6.4859 0.0360659 6.99325 0.000358826 7.44486 0C 8.61918 0.00205748 9.67155 0.183101 10.4865 0.5253C 11.3053 0.86253 12.0262 1.37498 12.5313 1.9805C 13.0339 2.57424 13.4187 3.3233 13.626 4.11044C 13.8338 4.87856 13.9431 5.72801 13.9443 6.58236C 13.944 7.20538 13.9089 7.80398 13.8408 8.34187C 13.7838 8.8628 13.6918 9.44939 13.5685 10.0774L 13.4769 10.5441L 13.0013 10.5441L 9.51817 10.5441L 8.94011 10.5441L 8.94011 9.966L 8.94011 8.52298C 8.94011 6.98792 8.76859 5.91924 8.47544 5.2573C 8.1942 4.62225 7.8614 4.44023 7.49462 4.44023C 7.15962 4.43678 6.94563 4.48289 6.71576 4.60756C 6.54623 4.69547 6.37278 4.86138 6.21416 5.16101L 6.21247 5.16419L 6.21075 5.16734C 6.03637 5.48154 5.91115 5.87912 5.80855 6.44823C 5.7134 7.02788 5.66732 7.73714 5.66763 8.6225L 5.66763 21.56C 5.66743 22.4269 5.70369 23.1229 5.77813 23.6855C 5.8593 24.2297 5.96821 24.6048 6.13084 24.9046C 6.27171 25.181 6.38962 25.312 6.59357 25.4145C 6.83784 25.5326 7.0855 25.579 7.46144 25.5763C 7.67124 25.58 7.81062 25.5483 8.00355 25.4528C 8.18784 25.3593 8.30468 25.2509 8.44935 25.0407L 8.45064 25.0389L 8.45194 25.0371C 8.61963 24.8091 8.73072 24.5606 8.82744 24.1957L 8.82878 24.1907L 8.83022 24.1857C 8.94085 23.8101 8.99096 23.3987 8.98987 22.8703L 8.98987 20.1003L 8.98987 19.5223L 9.56793 19.5223L 13.4989 19.5223L 14.077 19.5223L 14.077 20.1003L 14.077 22.721C 14.077 25.0726 13.5421 26.9279 12.357 28.1634C 11.1798 29.3907 9.51869 29.9717 7.46473 29.9834L 7.46309 29.9834ZM 8.25759 25.972C 8.00327 26.0936 7.73788 26.1544 7.46144 26.1544C 7.0302 26.1544 6.65976 26.0825 6.35015 25.9388C 6.05159 25.784 5.80833 25.5296 5.62035 25.1758C 5.43236 24.822 5.29414 24.352 5.20568 23.766C 5.12828 23.1799 5.08958 22.4446 5.08958 21.56L 5.08958 8.6225C 5.08958 7.71577 5.13934 6.95832 5.23886 6.35015C 5.34943 5.74198 5.50424 5.25544 5.70328 4.89054C 5.90232 4.51458 6.15111 4.2492 6.44967 4.09439C 6.74823 3.93958 7.09654 3.86218 7.49462 3.86218C 8.15808 3.86218 8.6612 4.2492 9.00399 5.02323C 9.34677 5.79727 9.51817 6.96385 9.51817 8.52298L 9.51817 9.38795L 9.51817 9.966L 10.0962 9.966L 13.0013 9.966C 13.123 9.34677 13.2114 8.78283 13.2667 8.27418C 13.3331 7.75447 13.3662 7.19053 13.3662 6.58236C 13.3662 5.76409 13.2667 4.99006 13.0677 4.26025C 12.8797 3.53045 12.5535 2.89463 12.0891 2.35281C 11.6357 1.79993 11.0275 1.36868 10.2646 1.05906C 9.51264 0.738391 8.57274 0.578056 7.44486 0.578056C 7.01361 0.578056 6.54366 0.611229 6.03501 0.677575C 5.53741 0.743921 5.03429 0.88767 4.52564 1.10882C 4.01699 1.31892 3.52492 1.62853 3.04944 2.03767C 2.57396 2.4468 2.15377 2.99968 1.78887 3.69631C 1.42397 4.38189 1.13094 5.23333 0.909785 6.25063C 0.688632 7.25688 0.578056 8.47322 0.578056 9.89966L 0.578056 19.9345C 0.578056 21.3499 0.683104 22.5717 0.893199 23.6001C 1.11435 24.6174 1.40185 25.4744 1.7557 26.171C 2.1206 26.8676 2.53526 27.4316 2.99968 27.8628C 3.47516 28.283 3.96723 28.6092 4.47588 28.8414C 4.99559 29.0736 5.50977 29.2229 6.01842 29.2892C 6.53813 29.3667 7.01914 29.4054 7.46144 29.4054C 9.40759 29.3943 10.9004 28.8469 11.9398 27.7633C 12.9792 26.6796 13.4989 24.9989 13.4989 22.721L 13.4989 20.6784L 13.4989 20.1003L 12.9209 20.1003L 10.146 20.1003L 9.56793 20.1003L 9.56793 20.6784L 9.56793 22.8703C 9.56793 23.4342 9.50711 23.9263 9.38548 24.3465C 9.2749 24.7556 9.12009 25.0984 8.92105 25.3748C 8.73307 25.6402 8.51192 25.8393 8.25759 25.972Z"/>
<path id="path3_fill" d="M 7.62731 29.4054C 7.17394 29.4054 6.68188 29.3667 6.15111 29.2892C 5.62034 29.2229 5.09511 29.0736 4.5754 28.8414C 4.05569 28.6092 3.55256 28.283 3.06603 27.8628C 2.59055 27.4316 2.16483 26.8676 1.78887 26.171C 1.42397 25.4744 1.13094 24.6174 0.909784 23.6001C 0.688631 22.5717 0.578056 21.3499 0.578056 19.9345L 0.578056 9.89966C 0.578056 8.47322 0.688631 7.25688 0.909784 6.25063C 1.14199 5.23333 1.44608 4.38189 1.82204 3.69631C 2.198 2.99968 2.62372 2.4468 3.0992 2.03767C 3.58574 1.62853 4.08886 1.31892 4.60857 1.10882C 5.13934 0.88767 5.66457 0.743921 6.18428 0.677575C 6.70399 0.611229 7.185 0.578056 7.62731 0.578056C 8.0475 0.578056 8.51192 0.611229 9.02057 0.677575C 9.54028 0.732864 10.0545 0.865556 10.5631 1.07565C 11.0828 1.27469 11.5859 1.57877 12.0725 1.98791C 12.559 2.38598 12.9903 2.93334 13.3662 3.62997C 13.7422 4.31554 14.0407 5.17251 14.2619 6.20087C 14.4941 7.21818 14.6102 8.4511 14.6102 9.89966L 14.6102 19.9345C 14.6102 21.3388 14.4941 22.5496 14.2619 23.5669C 14.0297 24.5732 13.7256 25.4301 13.3496 26.1378C 12.9737 26.8345 12.5369 27.3984 12.0393 27.8296C 11.5528 28.2498 11.0497 28.5816 10.5299 28.8248C 10.0213 29.057 9.51264 29.2118 9.00399 29.2892C 8.49533 29.3667 8.03644 29.4054 7.62731 29.4054ZM 7.62731 26.171C 8.0475 26.171 8.4124 26.0991 8.72202 25.9554C 9.04269 25.8116 9.30254 25.5628 9.50158 25.209C 9.71168 24.8551 9.86648 24.3907 9.966 23.8157C 10.0766 23.2297 10.1319 22.4943 10.1319 21.6097L 10.1319 8.72202C 10.1319 7.81529 10.0766 7.05784 9.966 6.44967C 9.86648 5.8415 9.71168 5.35496 9.50158 4.99006C 9.30254 4.6141 9.04269 4.34872 8.72202 4.19391C 8.4124 4.0391 8.0475 3.9617 7.62731 3.9617C 7.19606 3.9617 6.8201 4.0391 6.49943 4.19391C 6.17875 4.34872 5.91337 4.6141 5.70328 4.99006C 5.49318 5.35496 5.33285 5.8415 5.22227 6.44967C 5.12275 7.05784 5.07299 7.81529 5.07299 8.72202L 5.07299 21.6097C 5.07299 22.4943 5.12275 23.2297 5.22227 23.8157C 5.33285 24.3907 5.49318 24.8551 5.70328 25.209C 5.91337 25.5628 6.17875 25.8116 6.49943 25.9554C 6.8201 26.0991 7.19606 26.171 7.62731 26.171Z"/>
<path id="path4_fill" fill-rule="evenodd" d="M 2.68288 28.2957L 2.67768 28.291C 2.16382 27.8215 1.6784 27.1799 1.28017 26.4455L 1.27847 26.4424L 1.27681 26.4392C 0.892899 25.7027 0.574097 24.7726 0.344922 23.7229L 0.344647 23.7216C 0.117156 22.6587 0.000588433 21.3759 0 19.9345L 0 9.89966C 0.000593781 8.44703 0.117372 7.16849 0.345203 6.12655L 0.345704 6.12427L 0.346223 6.12199C 0.586868 5.0723 0.918311 4.14636 1.3143 3.42001C 1.71385 2.68404 2.20443 2.04895 2.72217 1.59949L 2.72465 1.59735L 2.72716 1.59524C 3.24614 1.16088 3.82552 0.80461 4.3881 0.574463C 4.95281 0.340626 5.55201 0.176972 6.11108 0.104172C 6.64748 0.0359418 7.1651 0.000342564 7.62731 0C 8.06647 0.000365993 8.5662 0.0358261 9.0895 0.103618C 9.64668 0.165249 10.2354 0.317091 10.7775 0.5388C 11.3415 0.758367 11.9239 1.11017 12.4432 1.54441C 12.974 1.98433 13.4737 2.61696 13.8738 3.35329C 14.2703 4.08095 14.5967 5.01491 14.8263 6.07582C 15.0651 7.12951 15.1876 8.42565 15.1883 9.89966L 15.1883 19.9345C 15.1876 21.3664 15.0648 22.6417 14.8255 23.6956L 14.8252 23.6969C 14.5846 24.7351 14.2547 25.663 13.8601 26.409L 13.8592 26.4107L 13.8583 26.4124C 13.4582 27.1498 12.9568 27.7957 12.4179 28.2665L 12.4171 28.2671C 11.9015 28.7108 11.332 29.086 10.775 29.3484L 10.7725 29.3495L 10.77 29.3507C 10.2259 29.5977 9.64061 29.7756 9.09095 29.8607C 8.56314 29.9407 8.06075 29.9829 7.62731 29.9834C 7.15268 29.983 6.62064 29.9414 6.07259 29.862C 5.50033 29.788 4.89547 29.6159 4.33958 29.3692C 3.77972 29.1171 3.2056 28.7453 2.6882 28.3003L 2.68288 28.2957ZM 6.15111 29.2892C 6.68188 29.3667 7.17394 29.4054 7.62731 29.4054C 8.03644 29.4054 8.49533 29.3667 9.00399 29.2892C 9.51264 29.2118 10.0213 29.057 10.5299 28.8248C 11.0497 28.5816 11.5528 28.2498 12.0393 27.8296C 12.5369 27.3984 12.9737 26.8345 13.3496 26.1378C 13.7256 25.4301 14.0297 24.5732 14.2619 23.5669C 14.4941 22.5496 14.6102 21.3388 14.6102 19.9345L 14.6102 9.89966C 14.6102 8.4511 14.4941 7.21818 14.2619 6.20087C 14.0407 5.17251 13.7422 4.31554 13.3662 3.62997C 12.9903 2.93334 12.559 2.38598 12.0725 1.98791C 11.5859 1.57877 11.0828 1.27469 10.5631 1.07565C 10.0545 0.865556 9.54028 0.732864 9.02057 0.677575C 8.51192 0.611229 8.0475 0.578056 7.62731 0.578056C 7.185 0.578056 6.70399 0.611229 6.18428 0.677575C 5.66457 0.743921 5.13934 0.88767 4.60857 1.10882C 4.08886 1.31892 3.58574 1.62853 3.0992 2.03767C 2.62372 2.4468 2.198 2.99968 1.82204 3.69631C 1.44608 4.38189 1.14199 5.23333 0.909784 6.25063C 0.688631 7.25688 0.578056 8.47322 0.578056 9.89966L 0.578056 19.9345C 0.578056 21.3499 0.688631 22.5717 0.909784 23.6001C 1.13094 24.6174 1.42397 25.4744 1.78887 26.171C 2.16483 26.8676 2.59055 27.4316 3.06603 27.8628C 3.55256 28.283 4.05569 28.6092 4.5754 28.8414C 5.09511 29.0736 5.62034 29.2229 6.15111 29.2892ZM 8.48206 25.4295L 8.48556 25.4279C 8.71986 25.3321 8.8458 25.2085 8.99776 24.9256L 9.00108 24.9197L 9.00454 24.9139C 9.18595 24.6148 9.30591 24.2496 9.39641 23.7171L 9.39716 23.7128L 9.39797 23.7085C 9.50346 23.1543 9.55422 22.4726 9.55381 21.6097L 9.55381 8.72202C 9.55419 7.83635 9.50313 7.13069 9.39727 6.55308L 9.39635 6.54806L 9.39553 6.54302C 9.30433 5.97616 9.18274 5.58815 9.00062 5.27849L 8.9955 5.26959L 8.9907 5.26052C 8.83576 4.95507 8.70548 4.81823 8.47071 4.71448L 8.46709 4.71273L 8.4635 4.71094C 8.22163 4.58477 7.98719 4.5366 7.62731 4.53975C 7.25464 4.53678 7.00544 4.58664 6.75074 4.71448C 6.51349 4.81999 6.37443 4.96278 6.20789 5.27205L 6.20608 5.27528L 6.20423 5.27849C 6.0215 5.58987 5.89388 5.9815 5.79198 6.54763C 5.69682 7.1273 5.65074 7.8366 5.65105 8.72202L 5.65105 21.6097C 5.65072 22.4718 5.69648 23.1569 5.79118 23.7132C 5.89234 24.2445 6.01838 24.6132 6.20032 24.9139C 6.36404 25.2008 6.49906 25.3304 6.73588 25.4279C 6.99377 25.5478 7.25057 25.5955 7.62731 25.5929C 7.99138 25.5957 8.23354 25.5494 8.47859 25.4311L 8.48206 25.4295ZM 5.22227 23.8157C 5.12275 23.2297 5.07299 22.4943 5.07299 21.6097L 5.07299 8.72202C 5.07299 7.81529 5.12275 7.05784 5.22227 6.44967C 5.33285 5.8415 5.49318 5.35496 5.70328 4.99006C 5.91337 4.6141 6.17875 4.34872 6.49943 4.19391C 6.8201 4.0391 7.19606 3.9617 7.62731 3.9617C 8.0475 3.9617 8.4124 4.0391 8.72202 4.19391C 9.04269 4.34872 9.30254 4.6141 9.50158 4.99006C 9.71168 5.35496 9.86648 5.8415 9.966 6.44967C 10.0766 7.05784 10.1319 7.81529 10.1319 8.72202L 10.1319 21.6097C 10.1319 22.4943 10.0766 23.2297 9.966 23.8157C 9.86648 24.3907 9.71168 24.8551 9.50158 25.209C 9.30254 25.5628 9.04269 25.8116 8.72202 25.9554C 8.4124 26.0991 8.0475 26.171 7.62731 26.171C 7.19606 26.171 6.8201 26.0991 6.49943 25.9554C 6.17875 25.8116 5.91337 25.5628 5.70328 25.209C 5.49318 24.8551 5.33285 24.3907 5.22227 23.8157Z"/>
<path id="path5_fill" d="M 0.578056 0.578056L 5.03982 0.578056C 5.71434 0.578056 6.41097 0.600172 7.12971 0.644402C 7.85952 0.677575 8.56721 0.79368 9.25278 0.992718C 9.94942 1.19176 10.6018 1.50137 11.21 1.92156C 11.8292 2.33069 12.371 2.91122 12.8355 3.66314C 13.2999 4.404 13.6648 5.3439 13.9302 6.48284C 14.2066 7.61072 14.3448 8.99293 14.3448 10.6295L 14.3448 18.8564C 14.3448 20.4929 14.2066 21.8806 13.9302 23.0196C 13.6648 24.1585 13.2999 25.0984 12.8355 25.8393C 12.371 26.5801 11.8292 27.1607 11.21 27.5808C 10.6018 27.99 9.94942 28.2941 9.25278 28.4931C 8.56721 28.6921 7.85952 28.8138 7.12971 28.858C 6.41097 28.8912 5.71434 28.9078 5.03982 28.9078L 0.578056 28.9078L 0.578056 0.578056ZM 5.96866 25.9056C 6.7427 25.9056 7.37851 25.8061 7.87611 25.6071C 8.38476 25.408 8.78284 25.0597 9.07033 24.5621C 9.36889 24.0535 9.57345 23.3679 9.68403 22.5054C 9.79461 21.6318 9.84989 20.5316 9.84989 19.2047L 9.84989 10.4138C 9.84989 9.08692 9.79461 7.99221 9.68403 7.12971C 9.57345 6.25616 9.36889 5.57059 9.07033 5.07299C 8.78284 4.56434 8.38476 4.21049 7.87611 4.01146C 7.37851 3.81242 6.7427 3.7129 5.96866 3.7129L 4.87396 3.7129L 4.87396 25.9056L 5.96866 25.9056Z"/>
<path id="path6_fill" fill-rule="evenodd" d="M 0 0L 0.578056 0L 5.03982 0C 5.7222 7.26032e-05 6.43516 0.0226568 7.16105 0.0671812C 7.92298 0.103208 8.69641 0.230346 9.41395 0.437584C 10.1536 0.651234 10.8889 0.999978 11.5349 1.44345C 12.2054 1.8928 12.8303 2.56106 13.3252 3.35611L 0 0ZM 11.21 1.92156C 10.6018 1.50137 9.94942 1.19176 9.25278 0.992718C 8.56721 0.79368 7.85952 0.677575 7.12971 0.644402C 6.41097 0.600172 5.71434 0.578056 5.03982 0.578056L 1.15611 0.578056L 0.578056 0.578056L 0.578056 1.15611L 0.578056 28.3297L 0.578056 28.9078L 1.15611 28.9078L 5.03982 28.9078C 5.71434 28.9078 6.41097 28.8912 7.12971 28.858C 7.85952 28.8138 8.56721 28.6921 9.25278 28.4931C 9.94942 28.2941 10.6018 27.99 11.21 27.5808C 11.8292 27.1607 12.371 26.5801 12.8355 25.8393C 13.2999 25.0984 13.6648 24.1585 13.9302 23.0196C 14.2066 21.8806 14.3448 20.4929 14.3448 18.8564L 14.3448 10.6295C 14.3448 8.99293 14.2066 7.61072 13.9302 6.48284C 13.6648 5.3439 13.2999 4.404 12.8355 3.66314C 12.371 2.91122 11.8292 2.33069 11.21 1.92156ZM 13.3254 3.35634C 13.8162 4.1442 14.2164 5.17152 14.4924 6.34843C 14.7766 7.51557 14.9222 8.96566 14.9229 10.6295L 14.9229 18.8564C 14.9222 20.5204 14.7767 21.9756 14.4925 23.1534C 14.2165 24.3307 13.8162 25.3583 13.3252 26.1463C 12.8293 26.9325 12.2052 27.5998 11.5346 28.0592L 11.5336 28.0598L 11.5326 28.0605C 10.8868 28.4928 10.1531 28.8349 9.41395 29.0482C 8.69696 29.2554 7.92606 29.388 7.16468 29.435L 7.16053 29.4353L 7.15636 29.4354C 6.43117 29.4689 5.72122 29.4858 5.03982 29.4858L 0.578056 29.4858L 0 29.4858L 0 28.9078L 0 0.578056L 0 0L 13.3254 3.35634ZM 7.66344 25.0695L 7.66546 25.0687C 8.08463 24.914 8.33626 24.6927 8.56981 24.2729L 8.57081 24.2712L 8.57181 24.2695C 8.83873 23.823 9.00782 23.2485 9.11055 22.4328C 9.11059 22.4325 9.11063 22.4322 9.11067 22.4319C 9.21883 21.5802 9.27202 20.5166 9.27184 19.2047L 9.27184 10.4138C 9.27202 9.1015 9.21884 8.04358 9.11067 7.20322L 9.11055 7.20231C 9.00533 6.37107 8.81627 5.7731 8.57465 5.3704L 8.57079 5.36396L 8.5671 5.35743C 8.3331 4.9275 8.08271 4.70336 7.66546 4.54977L 7.66344 4.54897L 7.66142 4.54817C 7.2255 4.36986 6.69787 4.28922 5.96866 4.29096L 5.45201 4.29096L 5.45201 25.3276L 5.96866 25.3276C 6.69787 25.3293 7.2255 25.2487 7.66142 25.0703L 7.66344 25.0695ZM 5.45201 25.9056L 4.87396 25.9056L 4.87396 25.3276L 4.87396 4.29096L 4.87396 3.7129L 5.45201 3.7129L 5.96866 3.7129C 6.7427 3.7129 7.37851 3.81242 7.87611 4.01146C 8.38476 4.21049 8.78284 4.56434 9.07033 5.07299C 9.36889 5.57059 9.57345 6.25616 9.68403 7.12971C 9.79461 7.99221 9.84989 9.08692 9.84989 10.4138L 9.84989 19.2047C 9.84989 20.5316 9.79461 21.6318 9.68403 22.5054C 9.57345 23.3679 9.36889 24.0535 9.07033 24.5621C 8.78284 25.0597 8.38476 25.408 7.87611 25.6071C 7.37851 25.8061 6.7427 25.9056 5.96866 25.9056L 5.45201 25.9056Z"/>
<path id="path7_fill" d="M 0.578056 0.578056L 11.0773 0.578056L 11.0773 3.9617L 4.87395 3.9617L 4.87395 12.4374L 9.66744 12.4374L 9.66744 15.821L 4.87395 15.821L 4.87395 25.5241L 11.2432 25.5241L 11.2432 28.9078L 0.578056 28.9078L 0.578056 0.578056Z"/>
<path id="path8_fill" fill-rule="evenodd" d="M 0 0L 0.578056 0L 11.0773 0L 11.6553 0L 11.6553 0.578056L 11.6553 3.9617L 11.6553 4.53975L 11.0773 4.53975L 5.452 4.53975L 5.452 11.8593L 9.66744 11.8593L 10.2455 11.8593L 10.2455 12.4374L 10.2455 15.821L 10.2455 16.3991L 9.66744 16.3991L 5.452 16.3991L 5.452 24.9461L 11.2432 24.9461L 11.8212 24.9461L 11.8212 25.5241L 11.8212 28.9078L 11.8212 29.4858L 11.2432 29.4858L 0.578056 29.4858L 0 29.4858L 0 28.9078L 0 0.578056L 0 0ZM 5.452 25.5241L 4.87395 25.5241L 4.87395 24.9461L 4.87395 16.3991L 4.87395 15.821L 5.452 15.821L 9.08938 15.821L 9.66744 15.821L 9.66744 15.243L 9.66744 13.0154L 9.66744 12.4374L 9.08938 12.4374L 5.452 12.4374L 4.87395 12.4374L 4.87395 11.8593L 4.87395 4.53975L 4.87395 3.9617L 5.452 3.9617L 10.4992 3.9617L 11.0773 3.9617L 11.0773 3.38364L 11.0773 1.15611L 11.0773 0.578056L 10.4992 0.578056L 1.15611 0.578056L 0.578056 0.578056L 0.578056 1.15611L 0.578056 28.3297L 0.578056 28.9078L 1.15611 28.9078L 10.6651 28.9078L 11.2432 28.9078L 11.2432 28.3297L 11.2432 26.1022L 11.2432 25.5241L 10.6651 25.5241L 5.452 25.5241Z"/>
<path id="path9_fill" d="M 0.578056 23.4176C 0.578056 22.8095 0.611226 22.2511 0.677572 21.7424C 0.754976 21.2227 0.865549 20.6643 1.0093 20.0672L 4.34319 20.0672L 4.34319 21.4438C 4.34319 22.2068 4.38741 22.8813 4.47588 23.4674C 4.57539 24.0535 4.73021 24.551 4.9403 24.9602C 5.16146 25.3583 5.44895 25.6623 5.8028 25.8724C 6.1677 26.0715 6.61 26.171 7.12971 26.171C 7.94798 26.171 8.57273 25.9498 9.00398 25.5075C 9.43523 25.0542 9.65086 24.3962 9.65086 23.5337C 9.65086 23.0914 9.61768 22.6878 9.55133 22.3229C 9.49605 21.947 9.391 21.5765 9.23619 21.2116C 9.09244 20.8467 8.8934 20.4652 8.63908 20.0672C 8.38475 19.658 8.05856 19.2047 7.66048 18.7071L 3.18213 13.3828C 2.38598 12.3655 1.77227 11.3427 1.34102 10.3143C 0.909776 9.2749 0.694161 8.16913 0.694161 6.99702C 0.694161 6.05712 0.8379 5.19463 1.1254 4.40953C 1.42396 3.62444 1.84968 2.94992 2.40256 2.38598C 2.95544 1.81098 3.63549 1.36868 4.4427 1.05906C 5.26096 0.738391 6.18428 0.578056 7.21264 0.578056C 8.46216 0.578056 9.50158 0.754978 10.3309 1.10882C 11.1713 1.46267 11.8403 1.92709 12.3379 2.50209C 12.8355 3.07708 13.1838 3.72396 13.3828 4.44271C 13.5929 5.15039 13.698 5.86361 13.698 6.58236C 13.698 7.19053 13.6482 7.75447 13.5487 8.27418C 13.4602 8.78283 13.3552 9.34677 13.2335 9.966L 9.91624 9.966L 9.91624 8.6225C 9.91624 7.11866 9.70062 5.96866 9.26937 5.17251C 8.83812 4.3653 8.13595 3.9617 7.16288 3.9617C 6.35567 3.9617 5.75303 4.18838 5.35495 4.64174C 4.95688 5.08405 4.75785 5.68116 4.75785 6.43308C 4.75785 6.83116 4.78548 7.19053 4.84077 7.5112C 4.90712 7.83188 4.99559 8.13043 5.10617 8.40687C 5.2278 8.67226 5.37154 8.93211 5.53741 9.18644C 5.70327 9.44077 5.89125 9.70615 6.10135 9.98259L 11.0939 16.0201C 12.0006 17.2032 12.6972 18.3422 13.1838 19.4369C 13.6703 20.5205 13.9136 21.6705 13.9136 22.8869C 13.9136 23.8931 13.7532 24.7998 13.4326 25.607C 13.123 26.4143 12.6751 27.0998 12.0891 27.6638C 11.503 28.2277 10.7953 28.6645 9.966 28.9741C 9.13668 29.2727 8.2023 29.4219 7.16288 29.4219C 5.88019 29.4219 4.81314 29.2505 3.9617 28.9078C 3.12132 28.565 2.44679 28.1116 1.93814 27.5477C 1.44054 26.9837 1.0867 26.3424 0.876609 25.6236C 0.677571 24.9049 0.578056 24.1696 0.578056 23.4176Z"/>
<path id="path10_fill" fill-rule="evenodd" d="M 0.10505 21.6624L 0.105823 21.6572C 0.185416 21.1239 0.300909 20.5405 0.447299 19.9319L 0.553889 19.4891L 1.0093 19.4891L 4.34319 19.4891L 4.92125 19.4891L 4.92125 20.0672L 4.92125 21.4438C 4.92094 22.1858 4.96189 22.8156 5.04672 23.3763C 5.13796 23.9188 5.26458 24.3292 5.45149 24.6903C 5.6297 25.0171 5.80905 25.2084 6.08842 25.3699C 6.37761 25.5319 6.67842 25.5964 7.12971 25.5929C 7.84267 25.5929 8.29696 25.4031 8.58759 25.1065C 8.88182 24.7956 9.0728 24.3027 9.0728 23.5337C 9.07329 23.1151 9.04457 22.7633 8.9826 22.4263L 8.98085 22.4167L 8.97943 22.407C 8.93083 22.0681 8.8458 21.7686 8.70404 21.4374L 8.70111 21.4305L 8.69836 21.4235C 8.56655 21.0867 8.39311 20.7548 8.15195 20.3784L 8.15003 20.3754L 8.14814 20.3723C 7.90533 19.9811 7.60044 19.5574 7.21355 19.0738L 2.73975 13.7549L 2.73319 13.7471L 2.72691 13.7391C 1.90962 12.693 1.25657 11.6038 0.807945 10.5379L 0.80752 10.5369L 0.807099 10.5358C 0.356344 9.44182 0.118783 8.22471 0.116105 6.99702C 0.118074 6.00945 0.278989 5.04709 0.582594 4.21076L 0.583823 4.2074L 0.585093 4.20406C 0.906812 3.36616 1.39631 2.5913 1.98978 1.9813C 2.58961 1.36419 3.37244 0.854502 4.23178 0.520861C 5.10527 0.181699 6.13465 0.00213477 7.21264 0C 8.5096 0.0020507 9.66244 0.200017 10.5552 0.576072C 10.5558 0.576301 10.5563 0.576525 10.5568 0.576754C 10.5571 0.576883 10.5574 0.577011 10.5578 0.57714C 11.4512 0.957139 12.2272 1.49775 12.775 2.12382C 13.3099 2.74721 13.7179 3.50421 13.9381 4.28191C 14.1577 5.02834 14.2745 5.82264 14.276 6.58236C 14.2755 7.21391 14.2211 7.83033 14.1174 8.37756C 14.0285 8.8885 13.9226 9.45717 13.8007 10.0774L 13.7091 10.5441L 13.2335 10.5441L 9.91624 10.5441L 9.33818 10.5441L 9.33818 9.966L 9.33818 8.6225C 9.33818 7.15866 9.1257 6.12097 8.76109 5.44783L 8.7603 5.44637L 8.75951 5.4449C 8.43645 4.8402 7.93939 4.53975 7.16288 4.53975C 6.46278 4.53975 6.04383 4.73329 5.78933 5.02314L 5.78699 5.02581L 5.78462 5.02844C 5.5053 5.3388 5.3359 5.78496 5.3359 6.43308C 5.33548 6.80492 5.35861 7.11248 5.40877 7.40347C 5.46824 7.69111 5.5401 7.93458 5.63754 8.17887C 5.74813 8.41951 5.86958 8.63825 6.0216 8.87067C 6.17944 9.11289 6.35317 9.35834 6.55441 9.62339L 11.5394 15.6517L 11.5462 15.6599L 11.5527 15.6685C 12.4772 16.8762 13.209 18.0734 13.712 19.2021C 14.2202 20.3428 14.4885 21.6111 14.4916 22.8869C 14.4894 23.9425 14.3097 24.9554 13.9709 25.8176C 13.6363 26.6795 13.1195 27.4694 12.4899 28.0803C 11.8572 28.6845 11.0494 29.1837 10.1682 29.5157L 10.165 29.5168L 10.1618 29.518C 9.2808 29.8325 8.24804 29.9982 7.16288 30C 5.83421 29.9982 4.65839 29.8075 3.74581 29.444L 3.74459 29.4435L 3.74337 29.443C 2.84951 29.0751 2.0681 28.5483 1.50889 27.9348L 1.50678 27.9325L 1.50469 27.9301C 0.967927 27.3166 0.552999 26.5644 0.321771 25.7858L 0.320617 25.7819L 0.319519 25.7779C 0.111307 25.0211 0.00130697 24.2084 0 23.4176C 0.000254359 22.7923 0.0357505 22.1965 0.104372 21.6676L 0.10505 21.6624ZM 13.4326 25.607C 13.7532 24.7998 13.9136 23.8931 13.9136 22.8869C 13.9136 21.6705 13.6703 20.5205 13.1838 19.4369C 12.6972 18.3422 12.0006 17.2032 11.0939 16.0201L 6.10135 9.98259C 5.89125 9.70615 5.70327 9.44077 5.53741 9.18644C 5.37154 8.93211 5.2278 8.67226 5.10617 8.40687C 4.99559 8.13043 4.90712 7.83188 4.84077 7.5112C 4.78548 7.19053 4.75785 6.83116 4.75785 6.43308C 4.75785 5.68116 4.95688 5.08405 5.35495 4.64174C 5.75303 4.18838 6.35567 3.9617 7.16288 3.9617C 8.13595 3.9617 8.83812 4.3653 9.26937 5.17251C 9.70062 5.96866 9.91624 7.11866 9.91624 8.6225L 9.91624 9.38795L 9.91624 9.966L 10.4943 9.966L 13.2335 9.966C 13.3552 9.34677 13.4602 8.78283 13.5487 8.27418C 13.6482 7.75447 13.698 7.19053 13.698 6.58236C 13.698 5.86361 13.5929 5.15039 13.3828 4.44271C 13.1838 3.72396 12.8355 3.07708 12.3379 2.50209C 11.8403 1.92709 11.1713 1.46267 10.3309 1.10882C 9.50158 0.754978 8.46216 0.578056 7.21264 0.578056C 6.18428 0.578056 5.26096 0.738391 4.4427 1.05906C 3.63549 1.36868 2.95544 1.81098 2.40256 2.38598C 1.84968 2.94992 1.42396 3.62444 1.1254 4.40953C 0.8379 5.19463 0.694161 6.05712 0.694161 6.99702C 0.694161 8.16913 0.909776 9.2749 1.34102 10.3143C 1.77227 11.3427 2.38598 12.3655 3.18213 13.3828L 7.66048 18.7071C 8.05856 19.2047 8.38475 19.658 8.63908 20.0672C 8.8934 20.4652 9.09244 20.8467 9.23619 21.2116C 9.391 21.5765 9.49605 21.947 9.55133 22.3229C 9.61768 22.6878 9.65086 23.0914 9.65086 23.5337C 9.65086 24.3962 9.43523 25.0542 9.00398 25.5075C 8.57273 25.9498 7.94798 26.171 7.12971 26.171C 6.61 26.171 6.1677 26.0715 5.8028 25.8724C 5.44895 25.6623 5.16146 25.3583 4.9403 24.9602C 4.73021 24.551 4.57539 24.0535 4.47588 23.4674C 4.38741 22.8813 4.34319 22.2068 4.34319 21.4438L 4.34319 20.6452L 4.34319 20.0672L 3.76513 20.0672L 1.0093 20.0672C 0.865549 20.6643 0.754976 21.2227 0.677572 21.7424C 0.611226 22.2511 0.578056 22.8095 0.578056 23.4176C 0.578056 24.1696 0.677571 24.9049 0.876609 25.6236C 1.0867 26.3424 1.44054 26.9837 1.93814 27.5477C 2.44679 28.1116 3.12132 28.565 3.9617 28.9078C 4.81314 29.2505 5.88019 29.4219 7.16288 29.4219C 8.2023 29.4219 9.13668 29.2727 9.966 28.9741C 10.7953 28.6645 11.503 28.2277 12.0891 27.6638C 12.6751 27.0998 13.123 26.4143 13.4326 25.607Z"/>
<path id="path11_fill" d="M 7.46144 29.4054C 7.01913 29.4054 6.53814 29.3667 6.01842 29.2892C 5.50977 29.2229 4.99559 29.0736 4.47588 28.8414C 3.96723 28.6092 3.47516 28.283 2.99968 27.8628C 2.53526 27.4316 2.1206 26.8676 1.7557 26.171C 1.40185 25.4744 1.11436 24.6174 0.893205 23.6001C 0.68311 22.5717 0.578056 21.3499 0.578056 19.9345L 0.578056 9.89966C 0.578056 8.47322 0.688637 7.25688 0.90979 6.25063C 1.13094 5.23333 1.42397 4.38189 1.78887 3.69631C 2.15377 2.99968 2.57396 2.4468 3.04944 2.03767C 3.52492 1.62853 4.01698 1.31892 4.52563 1.10882C 5.03429 0.88767 5.53742 0.743921 6.03501 0.677575C 6.54366 0.611229 7.01361 0.578056 7.44485 0.578056C 8.57273 0.578056 9.51264 0.738391 10.2646 1.05906C 11.0275 1.36868 11.6357 1.79993 12.0891 2.35281C 12.5535 2.89463 12.8797 3.53045 13.0677 4.26025C 13.2667 4.99006 13.3662 5.76409 13.3662 6.58236C 13.3662 7.19053 13.3331 7.75447 13.2667 8.27418C 13.2114 8.78283 13.123 9.34677 13.0013 9.966L 9.51816 9.966L 9.51816 8.52298C 9.51816 6.96385 9.34677 5.79727 9.00399 5.02323C 8.6612 4.2492 8.15808 3.86218 7.49462 3.86218C 7.09654 3.86218 6.74822 3.93958 6.44967 4.09439C 6.15111 4.2492 5.90232 4.51458 5.70328 4.89054C 5.50425 5.25544 5.34943 5.74198 5.23886 6.35015C 5.13934 6.95832 5.08958 7.71577 5.08958 8.6225L 5.08958 21.56C 5.08958 22.4446 5.12827 23.1799 5.20568 23.766C 5.29414 24.352 5.43236 24.822 5.62034 25.1758C 5.80832 25.5296 6.05159 25.784 6.35015 25.9388C 6.65977 26.0825 7.03019 26.1544 7.46144 26.1544C 7.73788 26.1544 8.00327 26.0936 8.25759 25.972C 8.51192 25.8393 8.73307 25.6402 8.92105 25.3748C 9.12009 25.0984 9.2749 24.7556 9.38547 24.3465C 9.50711 23.9263 9.56792 23.4342 9.56792 22.8703L 9.56792 20.1003L 13.4989 20.1003L 13.4989 22.721C 13.4989 24.9989 12.9792 26.6796 11.9398 27.7633C 10.9004 28.8469 9.40759 29.3943 7.46144 29.4054Z"/>
<path id="path12_fill" fill-rule="evenodd" d="M 7.46308 29.9834L 7.46144 29.9834C 6.99713 29.9829 6.47503 29.9412 5.93742 29.8616C 5.38698 29.7874 4.79454 29.6154 4.24007 29.3692L 4.23794 29.3682L 4.23582 29.3673C 3.68663 29.1146 3.12323 28.7416 2.61689 28.296L 2.61156 28.2913L 2.60634 28.2864C 2.10382 27.8163 1.63031 27.1738 1.24364 26.4392L 1.24196 26.436L 1.24032 26.4328C 0.868718 25.6978 0.557071 24.771 0.328343 23.7229L 0.327573 23.7193L 0.326848 23.7158C 0.111008 22.6545 0.000531431 21.3746 0 19.9345L 0 9.89966C 0.000593615 8.44762 0.117282 7.16955 0.344928 6.12784C 0.344974 6.12762 0.345021 6.12741 0.345068 6.12719C 0.574239 5.07791 0.893548 4.15237 1.27784 3.42613C 1.66678 2.68847 2.15347 2.05024 2.67241 1.59949C 3.17981 1.165 3.74791 0.807718 4.29935 0.576891C 4.84221 0.34267 5.42089 0.177829 5.95861 0.10459L 5.95943 0.104481L 5.96024 0.104374C 6.4859 0.0360659 6.99324 0.000358826 7.44485 0C 8.6192 0.00205748 9.67159 0.183108 10.4865 0.525318C 11.3053 0.862536 12.0262 1.37496 12.5312 1.98043C 13.0339 2.57422 13.4187 3.32335 13.626 4.11056C 13.8338 4.87865 13.9431 5.72805 13.9443 6.58236C 13.944 7.20538 13.9089 7.80398 13.8408 8.34187C 13.7838 8.8628 13.6918 9.44939 13.5685 10.0774L 13.4769 10.5441L 13.0013 10.5441L 9.51816 10.5441L 8.9401 10.5441L 8.9401 9.966L 8.9401 8.52298C 8.9401 6.98792 8.76859 5.91924 8.47544 5.2573C 8.1942 4.62225 7.86139 4.44023 7.49462 4.44023C 7.15962 4.43678 6.94563 4.48289 6.71576 4.60756C 6.54623 4.69546 6.37279 4.86138 6.21416 5.16101L 6.21248 5.16419L 6.21076 5.16734C 6.03638 5.48154 5.91115 5.87913 5.80855 6.44823C 5.7134 7.02788 5.66732 7.73714 5.66763 8.6225L 5.66763 21.56C 5.66743 22.4269 5.70368 23.1229 5.77812 23.6855C 5.8593 24.2297 5.9682 24.6048 6.13083 24.9046C 6.27171 25.181 6.38962 25.312 6.59357 25.4145C 6.83784 25.5326 7.0855 25.579 7.46144 25.5763C 7.67125 25.58 7.81064 25.5483 8.00359 25.4528C 8.18786 25.3593 8.30469 25.2509 8.44935 25.0407L 8.45064 25.0389L 8.45194 25.0371C 8.61963 24.8091 8.73072 24.5606 8.82744 24.1957L 8.82878 24.1907L 8.83021 24.1857C 8.94085 23.8101 8.99096 23.3987 8.98987 22.8703L 8.98987 20.1003L 8.98987 19.5223L 9.56792 19.5223L 13.4989 19.5223L 14.077 19.5223L 14.077 20.1003L 14.077 22.721C 14.077 25.0726 13.5421 26.9279 12.357 28.1634C 11.1798 29.3907 9.51868 29.9717 7.46472 29.9834L 7.46308 29.9834ZM 8.25759 25.972C 8.00327 26.0936 7.73788 26.1544 7.46144 26.1544C 7.03019 26.1544 6.65977 26.0825 6.35015 25.9388C 6.05159 25.784 5.80832 25.5296 5.62034 25.1758C 5.43236 24.822 5.29414 24.352 5.20568 23.766C 5.12827 23.1799 5.08958 22.4446 5.08958 21.56L 5.08958 8.6225C 5.08958 7.71577 5.13934 6.95832 5.23886 6.35015C 5.34943 5.74198 5.50425 5.25544 5.70328 4.89054C 5.90232 4.51458 6.15111 4.2492 6.44967 4.09439C 6.74822 3.93958 7.09654 3.86218 7.49462 3.86218C 8.15808 3.86218 8.6612 4.2492 9.00399 5.02323C 9.34677 5.79727 9.51816 6.96385 9.51816 8.52298L 9.51816 9.38795L 9.51816 9.966L 10.0962 9.966L 13.0013 9.966C 13.123 9.34677 13.2114 8.78283 13.2667 8.27418C 13.3331 7.75447 13.3662 7.19053 13.3662 6.58236C 13.3662 5.76409 13.2667 4.99006 13.0677 4.26025C 12.8797 3.53045 12.5535 2.89463 12.0891 2.35281C 11.6357 1.79993 11.0275 1.36868 10.2646 1.05906C 9.51264 0.738391 8.57273 0.578056 7.44485 0.578056C 7.01361 0.578056 6.54366 0.611229 6.03501 0.677575C 5.53742 0.743921 5.03429 0.88767 4.52563 1.10882C 4.01698 1.31892 3.52492 1.62853 3.04944 2.03767C 2.57396 2.4468 2.15377 2.99968 1.78887 3.69631C 1.42397 4.38189 1.13094 5.23333 0.90979 6.25063C 0.688637 7.25688 0.578056 8.47322 0.578056 9.89966L 0.578056 19.9345C 0.578056 21.3499 0.68311 22.5717 0.893205 23.6001C 1.11436 24.6174 1.40185 25.4744 1.7557 26.171C 2.1206 26.8676 2.53526 27.4316 2.99968 27.8628C 3.47516 28.283 3.96723 28.6092 4.47588 28.8414C 4.99559 29.0736 5.50977 29.2229 6.01842 29.2892C 6.53814 29.3667 7.01913 29.4054 7.46144 29.4054C 9.40759 29.3943 10.9004 28.8469 11.9398 27.7633C 12.9792 26.6796 13.4989 24.9989 13.4989 22.721L 13.4989 20.6784L 13.4989 20.1003L 12.9209 20.1003L 10.146 20.1003L 9.56792 20.1003L 9.56792 20.6784L 9.56792 22.8703C 9.56792 23.4342 9.50711 23.9263 9.38547 24.3465C 9.2749 24.7556 9.12009 25.0984 8.92105 25.3748C 8.73307 25.6402 8.51192 25.8393 8.25759 25.972Z"/>
<path id="path13_fill" d="M 7.62731 29.4054C 7.17395 29.4054 6.68188 29.3667 6.15111 29.2892C 5.62034 29.2229 5.09511 29.0736 4.5754 28.8414C 4.05569 28.6092 3.55256 28.283 3.06603 27.8628C 2.59055 27.4316 2.16484 26.8676 1.78888 26.171C 1.42397 25.4744 1.13095 24.6174 0.909798 23.6001C 0.688645 22.5717 0.578056 21.3499 0.578056 19.9345L 0.578056 9.89966C 0.578056 8.47322 0.688645 7.25688 0.909798 6.25063C 1.14201 5.23333 1.44609 4.38189 1.82205 3.69631C 2.19801 2.99968 2.62372 2.4468 3.0992 2.03767C 3.58574 1.62853 4.08886 1.31892 4.60857 1.10882C 5.13934 0.88767 5.66459 0.743921 6.1843 0.677575C 6.70401 0.611229 7.185 0.578056 7.62731 0.578056C 8.0475 0.578056 8.51193 0.611229 9.02058 0.677575C 9.54029 0.732864 10.0545 0.865556 10.5631 1.07565C 11.0828 1.27469 11.5859 1.57877 12.0725 1.98791C 12.559 2.38598 12.9903 2.93334 13.3662 3.62997C 13.7422 4.31554 14.0408 5.17251 14.2619 6.20087C 14.4941 7.21818 14.6102 8.4511 14.6102 9.89966L 14.6102 19.9345C 14.6102 21.3388 14.4941 22.5496 14.2619 23.5669C 14.0297 24.5732 13.7256 25.4301 13.3496 26.1378C 12.9737 26.8345 12.5369 27.3984 12.0393 27.8296C 11.5528 28.2498 11.0497 28.5816 10.5299 28.8248C 10.0213 29.057 9.51265 29.2118 9.00399 29.2892C 8.49534 29.3667 8.03644 29.4054 7.62731 29.4054ZM 7.62731 26.171C 8.0475 26.171 8.41241 26.0991 8.72202 25.9554C 9.04269 25.8116 9.30255 25.5628 9.50158 25.209C 9.71168 24.8551 9.86648 24.3907 9.966 23.8157C 10.0766 23.2297 10.1319 22.4943 10.1319 21.6097L 10.1319 8.72202C 10.1319 7.81529 10.0766 7.05784 9.966 6.44967C 9.86648 5.8415 9.71168 5.35496 9.50158 4.99006C 9.30255 4.6141 9.04269 4.34872 8.72202 4.19391C 8.41241 4.0391 8.0475 3.9617 7.62731 3.9617C 7.19606 3.9617 6.8201 4.0391 6.49943 4.19391C 6.17876 4.34872 5.91338 4.6141 5.70328 4.99006C 5.49319 5.35496 5.33286 5.8415 5.22228 6.44967C 5.12276 7.05784 5.07299 7.81529 5.07299 8.72202L 5.07299 21.6097C 5.07299 22.4943 5.12276 23.2297 5.22228 23.8157C 5.33286 24.3907 5.49319 24.8551 5.70328 25.209C 5.91338 25.5628 6.17876 25.8116 6.49943 25.9554C 6.8201 26.0991 7.19606 26.171 7.62731 26.171Z"/>
<path id="path14_fill" fill-rule="evenodd" d="M 3.0992 2.03767C 3.58574 1.62853 4.08886 1.31892 4.60857 1.10882C 5.13934 0.88767 5.66459 0.743921 6.1843 0.677575C 6.70401 0.611229 7.185 0.578056 7.62731 0.578056C 8.0475 0.578056 8.51193 0.611229 9.02058 0.677575C 9.54029 0.732864 10.0545 0.865556 10.5631 1.07565C 11.0828 1.27469 11.5859 1.57877 12.0725 1.98791C 12.559 2.38598 12.9903 2.93334 13.3662 3.62997C 13.7422 4.31554 14.0408 5.17251 14.2619 6.20087C 14.4941 7.21818 14.6102 8.4511 14.6102 9.89966L 14.6102 19.9345C 14.6102 21.3388 14.4941 22.5496 14.2619 23.5669C 14.0297 24.5732 13.7256 25.4301 13.3496 26.1378C 12.9737 26.8345 12.5369 27.3984 12.0393 27.8296C 11.5528 28.2498 11.0497 28.5816 10.5299 28.8248C 10.0213 29.057 9.51265 29.2118 9.00399 29.2892C 8.49534 29.3667 8.03644 29.4054 7.62731 29.4054C 7.17395 29.4054 6.68188 29.3667 6.15111 29.2892C 5.62034 29.2229 5.09511 29.0736 4.5754 28.8414C 4.05569 28.6092 3.55256 28.283 3.06603 27.8628C 2.59055 27.4316 2.16484 26.8676 1.78888 26.171C 1.42397 25.4744 1.13095 24.6174 0.909798 23.6001C 0.688645 22.5717 0.578056 21.3499 0.578056 19.9345L 0.578056 9.89966C 0.578056 8.47322 0.688645 7.25688 0.909798 6.25063C 1.14201 5.23333 1.44609 4.38189 1.82205 3.69631C 2.19801 2.99968 2.62372 2.4468 3.0992 2.03767ZM 1.31429 3.42003C 1.71385 2.68405 2.20443 2.04896 2.72217 1.59949L 2.72466 1.59735L 2.72717 1.59524C 3.24614 1.16089 3.8255 0.804625 4.38807 0.574478C 4.95279 0.340633 5.55202 0.176973 6.1111 0.104172C 6.6475 0.0359418 7.16511 0.000342564 7.62731 0C 8.06648 0.000365993 8.56621 0.0358263 9.08952 0.103618C 9.6467 0.16525 10.2354 0.317092 10.7775 0.5388C 11.3416 0.758382 11.9239 1.11022 12.4433 1.54449C 12.974 1.98441 13.4737 2.61701 13.8738 3.35329C 14.2703 4.08097 14.5967 5.01496 14.8263 6.07591C 15.0652 7.12958 15.1876 8.42569 15.1883 9.89966L 15.1883 19.9345C 15.1876 21.3664 15.0648 22.6417 14.8255 23.6956L 14.8252 23.6969C 14.5846 24.7351 14.2547 25.663 13.8601 26.409L 13.8592 26.4107L 13.8583 26.4124C 13.4582 27.1498 12.9568 27.7957 12.4179 28.2665L 12.4172 28.2671C 11.9015 28.7108 11.332 29.086 10.775 29.3484L 10.7725 29.3495L 10.77 29.3507C 10.2259 29.5977 9.64061 29.7756 9.09096 29.8607C 8.56315 29.9407 8.06075 29.9829 7.62731 29.9834C 7.15268 29.983 6.62064 29.9414 6.07259 29.862C 5.50033 29.788 4.89548 29.6159 4.33959 29.3692C 3.77973 29.1171 3.2056 28.7453 2.6882 28.3003L 2.68288 28.2957L 2.67768 28.291C 2.16382 27.8215 1.67841 27.1799 1.28017 26.4455L 1.27848 26.4424L 1.27682 26.4392C 0.892907 25.7027 0.574111 24.7726 0.344936 23.7229L 0.344661 23.7216C 0.117171 22.6587 0.000588598 21.3759 0 19.9345L 0 9.89966C 0.000593946 8.44702 0.117387 7.16849 0.345217 6.12655L 0.345718 6.12427L 0.346237 6.12199C 0.586878 5.07232 0.918307 4.14638 1.31429 3.42003ZM 8.48207 25.4295L 8.48556 25.4279C 8.71986 25.3321 8.8458 25.2085 8.99776 24.9256L 9.00108 24.9197L 9.00454 24.9139C 9.18595 24.6148 9.30591 24.2496 9.39641 23.7171L 9.39716 23.7128L 9.39797 23.7085C 9.50346 23.1543 9.55422 22.4726 9.55381 21.6097L 9.55381 8.72202C 9.55419 7.83634 9.50313 7.13069 9.39727 6.55308L 9.39636 6.54806L 9.39553 6.54302C 9.30433 5.97617 9.18274 5.58815 9.00063 5.27849L 8.99551 5.26959L 8.9907 5.26052C 8.83576 4.95507 8.70549 4.81823 8.47071 4.71448L 8.4671 4.71273L 8.46351 4.71094C 8.22163 4.58477 7.9872 4.5366 7.62731 4.53975C 7.25465 4.53678 7.00545 4.58664 6.75074 4.71448C 6.51349 4.81999 6.37444 4.96278 6.20789 5.27205L 6.20609 5.27528L 6.20424 5.27849C 6.0215 5.58987 5.89389 5.9815 5.79199 6.54763C 5.69683 7.12731 5.65074 7.8366 5.65105 8.72202L 5.65105 21.6097C 5.65072 22.4718 5.69649 23.1569 5.79119 23.7132C 5.89235 24.2445 6.01838 24.6132 6.20033 24.9139C 6.36405 25.2008 6.49906 25.3304 6.73589 25.4279C 6.99377 25.5478 7.25058 25.5955 7.62731 25.5929C 7.99138 25.5957 8.23355 25.5494 8.4786 25.4311L 8.48207 25.4295ZM 5.22228 23.8157C 5.12276 23.2297 5.07299 22.4943 5.07299 21.6097L 5.07299 8.72202C 5.07299 7.81529 5.12276 7.05784 5.22228 6.44967C 5.33286 5.8415 5.49319 5.35496 5.70328 4.99006C 5.91338 4.6141 6.17876 4.34872 6.49943 4.19391C 6.8201 4.0391 7.19606 3.9617 7.62731 3.9617C 8.0475 3.9617 8.41241 4.0391 8.72202 4.19391C 9.04269 4.34872 9.30255 4.6141 9.50158 4.99006C 9.71168 5.35496 9.86648 5.8415 9.966 6.44967C 10.0766 7.05784 10.1319 7.81529 10.1319 8.72202L 10.1319 21.6097C 10.1319 22.4943 10.0766 23.2297 9.966 23.8157C 9.86648 24.3907 9.71168 24.8551 9.50158 25.209C 9.30255 25.5628 9.04269 25.8116 8.72202 25.9554C 8.41241 26.0991 8.0475 26.171 7.62731 26.171C 7.19606 26.171 6.8201 26.0991 6.49943 25.9554C 6.17876 25.8116 5.91338 25.5628 5.70328 25.209C 5.49319 24.8551 5.33286 24.3907 5.22228 23.8157Z"/>
<path id="path15_fill" d="M 0.578056 0.578056L 4.90713 0.578056L 4.90713 21.3443C 4.90713 22.2289 4.95135 22.9643 5.03982 23.5503C 5.12828 24.1364 5.26649 24.6063 5.45447 24.9602C 5.65351 25.303 5.90231 25.5518 6.20087 25.7066C 6.51048 25.8503 6.87539 25.9222 7.29558 25.9222C 7.71577 25.9222 8.08067 25.8503 8.39029 25.7066C 8.71096 25.5518 8.97081 25.303 9.16985 24.9602C 9.37994 24.6063 9.53476 24.1364 9.63428 23.5503C 9.74485 22.9643 9.80013 22.2289 9.80013 21.3443L 9.80013 0.578056L 14.0795 0.578056L 14.0795 20.1999C 14.0795 21.5821 13.9689 22.7652 13.7477 23.7494C 13.5266 24.7335 13.2335 25.5573 12.8686 26.2207C 12.5037 26.8842 12.0835 27.4095 11.6081 27.7965C 11.1436 28.1835 10.6571 28.482 10.1485 28.6921C 9.65086 28.8912 9.15326 29.0183 8.65567 29.0736C 8.15807 29.1289 7.70471 29.1566 7.29558 29.1566C 6.88644 29.1566 6.43308 29.1289 5.93549 29.0736C 5.44895 29.0183 4.95688 28.8912 4.45929 28.6921C 3.96169 28.482 3.48069 28.1835 3.01627 27.7965C 2.55185 27.4095 2.13718 26.8842 1.77228 26.2207C 1.40737 25.5573 1.11435 24.739 0.893197 23.766C 0.683102 22.7818 0.578056 21.5931 0.578056 20.1999L 0.578056 0.578056Z"/>
<path id="path16_fill" fill-rule="evenodd" d="M 0 0L 0.578056 0L 4.90713 0L 5.48519 0L 5.48519 0.578056L 5.48519 21.3443C 5.48492 22.2116 5.52623 22.9037 5.6114 23.4641C 5.69208 24.0075 5.8002 24.3827 5.96148 24.6825C 6.11131 24.9468 6.23963 25.0793 6.44844 25.1843C 6.69207 25.3012 6.93356 25.3469 7.29558 25.3441C 7.65575 25.3468 7.89662 25.3016 8.139 25.186C 8.13963 25.1858 8.14026 25.1854 8.14089 25.1851C 8.14288 25.1842 8.14487 25.1832 8.14686 25.1823L 8.14692 25.1824C 8.38434 25.074 8.51818 24.9425 8.66995 24.6699L 8.67137 24.6675L 8.6728 24.6651C 8.8538 24.3669 8.97372 23.9972 9.06438 23.4536L 9.06526 23.4483L 9.06624 23.4432C 9.17173 22.8889 9.22248 22.2073 9.22208 21.3443L 9.22208 0.578056L 9.22208 0L 9.80013 0L 14.0795 0L 14.6575 0L 14.6575 0.578056L 14.6575 20.1999C 14.6569 21.609 14.5398 22.8557 14.3117 23.8761C 14.0819 24.894 13.7608 25.7942 13.3751 26.4993C 12.9856 27.2031 12.4969 27.8128 11.9776 28.241C 11.4803 28.6533 10.9192 28.9972 10.3691 29.2264L 10.3661 29.2276L 10.3631 29.2288C 9.83014 29.4407 9.25699 29.587 8.7195 29.6481C 8.2076 29.7048 7.72231 29.7343 7.29558 29.7346C 6.86884 29.7343 6.38356 29.7048 5.87165 29.6481L 5.87022 29.648C 5.34374 29.5867 4.77686 29.4405 4.2446 29.2288L 4.2395 29.2268L 4.23444 29.2247C 3.69604 28.9954 3.14242 28.6522 2.64621 28.2405C 2.13774 27.8128 1.65543 27.2037 1.26577 26.4993C 0.880351 25.7948 0.559398 24.9008 0.329516 23.8941L 0.328674 23.8904L 0.32788 23.8866C 0.111471 22.8678 0.000561255 21.6186 0 20.1999L 0 0.578056L 0 0ZM 11.6081 27.7965C 12.0835 27.4095 12.5037 26.8842 12.8686 26.2207C 13.2335 25.5573 13.5266 24.7335 13.7477 23.7494C 13.9689 22.7652 14.0795 21.5821 14.0795 20.1999L 14.0795 1.15611L 14.0795 0.578056L 13.5014 0.578056L 10.3782 0.578056L 9.80013 0.578056L 9.80013 1.15611L 9.80013 21.3443C 9.80013 22.2289 9.74485 22.9643 9.63428 23.5503C 9.53476 24.1364 9.37994 24.6063 9.16985 24.9602C 8.97081 25.303 8.71096 25.5518 8.39029 25.7066C 8.08067 25.8503 7.71577 25.9222 7.29558 25.9222C 6.87539 25.9222 6.51048 25.8503 6.20087 25.7066C 5.90231 25.5518 5.65351 25.303 5.45447 24.9602C 5.26649 24.6063 5.12828 24.1364 5.03982 23.5503C 4.95135 22.9643 4.90713 22.2289 4.90713 21.3443L 4.90713 1.15611L 4.90713 0.578056L 4.32907 0.578056L 1.15611 0.578056L 0.578056 0.578056L 0.578056 1.15611L 0.578056 20.1999C 0.578056 21.5931 0.683102 22.7818 0.893197 23.766C 1.11435 24.739 1.40737 25.5573 1.77228 26.2207C 2.13718 26.8842 2.55185 27.4095 3.01627 27.7965C 3.48069 28.1835 3.96169 28.482 4.45929 28.6921C 4.95688 28.8912 5.44895 29.0183 5.93549 29.0736C 6.43308 29.1289 6.88644 29.1566 7.29558 29.1566C 7.70471 29.1566 8.15807 29.1289 8.65567 29.0736C 9.15326 29.0183 9.65086 28.8912 10.1485 28.6921C 10.6571 28.482 11.1436 28.1835 11.6081 27.7965Z"/>
<path id="path17_fill" d="M 5.13933 3.9617L 0.578056 3.9617L 0.578056 0.578056L 13.9799 0.578056L 13.9799 3.9617L 9.43522 3.9617L 9.43522 28.9078L 5.13933 28.9078L 5.13933 3.9617Z"/>
<path id="path18_fill" fill-rule="evenodd" d="M 0 4.53975L 0 3.9617L 0 0.578056L 0 0L 0.578056 0L 13.9799 0L 14.558 0L 14.558 0.578056L 14.558 3.9617L 14.558 4.53975L 13.9799 4.53975L 10.0133 4.53975L 10.0133 28.9078L 10.0133 29.4858L 9.43522 29.4858L 5.13933 29.4858L 4.56128 29.4858L 4.56128 28.9078L 4.56128 4.53975L 0.578056 4.53975L 0 4.53975ZM 4.56128 3.9617L 5.13933 3.9617L 5.13933 4.53975L 5.13933 28.3297L 5.13933 28.9078L 5.71739 28.9078L 8.85716 28.9078L 9.43522 28.9078L 9.43522 28.3297L 9.43522 4.53975L 9.43522 3.9617L 10.0133 3.9617L 13.4019 3.9617L 13.9799 3.9617L 13.9799 3.38364L 13.9799 1.15611L 13.9799 0.578056L 13.4019 0.578056L 1.15611 0.578056L 0.578056 0.578056L 0.578056 1.15611L 0.578056 3.38364L 0.578056 3.9617L 1.15611 3.9617L 4.56128 3.9617Z"/>
</defs>
</svg>
